<svg xmlns="http://www.w3.org/2000/svg" version="1.1" xmlns:xlink="http://www.w3.org/1999/xlink" width="200" height="200"><svg xmlns="http://www.w3.org/2000/svg" version="1.1" xmlns:xlink="http://www.w3.org/1999/xlink" viewBox="0 0 200 200"><rect width="200" height="200" fill="url('#gradient')"></rect><defs><linearGradient id="SvgjsLinearGradient1001" gradientTransform="rotate(45 0.5 0.5)"><stop offset="0%" stop-color="#dee90b"></stop><stop offset="100%" stop-color="#d9e241"></stop></linearGradient></defs><g><g fill="#1b3855" transform="matrix(2.1440037222286845,0,0,2.1440037222286845,12.4284431432255,111.38715915407042)" stroke="#0e5278" stroke-width="0.2"><path d="M1.16-10.57L4.46-10.57L4.46 0.36Q4.45 2.24 3.39 3.25Q2.32 4.27 0.42 4.27L0.42 4.27Q-0.40 4.27-1.13 4.10L-1.13 4.10L-1.13 1.61Q-0.57 1.70-0.21 1.70L-0.21 1.70Q1.16 1.70 1.16 0.34L1.16 0.34L1.16-10.57ZM0.92-13.29L0.92-13.29Q0.92-13.99 1.43-14.44Q1.93-14.89 2.74-14.89Q3.55-14.89 4.06-14.44Q4.57-13.99 4.57-13.29Q4.57-12.59 4.06-12.14Q3.55-11.69 2.74-11.69Q1.93-11.69 1.43-12.14Q0.92-12.59 0.92-13.29ZM11.86-2.97L11.86-2.97Q11.86-3.39 11.42-3.64Q10.98-3.90 9.75-4.17Q8.52-4.44 7.71-4.89Q6.91-5.33 6.49-5.97Q6.07-6.60 6.07-7.42L6.07-7.42Q6.07-8.88 7.28-9.82Q8.48-10.76 10.42-10.76L10.42-10.76Q12.51-10.76 13.78-9.81Q15.05-8.87 15.05-7.32L15.05-7.32L11.75-7.32Q11.75-8.59 10.41-8.59L10.41-8.59Q9.89-8.59 9.54-8.31Q9.19-8.02 9.19-7.59L9.19-7.59Q9.19-7.15 9.62-6.88Q10.05-6.60 10.99-6.43Q11.93-6.25 12.65-6.01L12.65-6.01Q15.03-5.19 15.03-3.07L15.03-3.07Q15.03-1.62 13.75-0.71Q12.46 0.20 10.42 0.20L10.42 0.20Q9.06 0.20 8.00-0.29Q6.93-0.78 6.34-1.62Q5.74-2.46 5.74-3.39L5.74-3.39L8.82-3.39Q8.84-2.66 9.31-2.32Q9.78-1.98 10.51-1.98L10.51-1.98Q11.18-1.98 11.52-2.26Q11.86-2.53 11.86-2.97ZM24.03-10.57L25.69-4.34L26.76-10.57L29.91-10.57L27.42 0L24.64 0L22.89-6.27L21.13 0L18.35 0L15.86-10.57L19.01-10.57L20.06-4.19L21.74-10.57L24.03-10.57ZM31.91-3.19L31.91-3.19Q32.70-3.19 33.21-2.73Q33.73-2.27 33.73-1.54Q33.73-0.82 33.21-0.36Q32.70 0.11 31.91 0.11L31.91 0.11Q31.12 0.11 30.61-0.36Q30.10-0.83 30.10-1.54Q30.10-2.26 30.61-2.72Q31.12-3.19 31.91-3.19ZM45.17 0L41.88 0Q41.70-0.32 41.56-0.95L41.56-0.95Q40.65 0.20 39.02 0.20L39.02 0.20Q37.53 0.20 36.48-0.71Q35.44-1.61 35.44-2.98L35.44-2.98Q35.44-4.70 36.71-5.58Q37.98-6.46 40.40-6.46L40.40-6.46L41.42-6.46L41.42-7.01Q41.42-8.47 40.16-8.47L40.16-8.47Q38.98-8.47 38.98-7.31L38.98-7.31L35.69-7.31Q35.69-8.85 37.00-9.80Q38.30-10.76 40.32-10.76Q42.34-10.76 43.52-9.78Q44.69-8.79 44.72-7.07L44.72-7.07L44.72-2.39Q44.74-0.94 45.17-0.17L45.17-0.17L45.17 0ZM39.81-2.15L39.81-2.15Q40.43-2.15 40.83-2.41Q41.24-2.68 41.42-3.01L41.42-3.01L41.42-4.70L40.46-4.70Q38.74-4.70 38.74-3.15L38.74-3.15Q38.74-2.71 39.04-2.43Q39.35-2.15 39.81-2.15ZM51.01-2.34L51.01-2.34Q51.70-2.34 52.08-2.72Q52.46-3.10 52.45-3.77L52.45-3.77L55.54-3.77Q55.54-2.03 54.29-0.92Q53.05 0.20 51.08 0.20L51.08 0.20Q48.78 0.20 47.45-1.25Q46.12-2.70 46.12-5.25L46.12-5.25L46.12-5.39Q46.12-6.99 46.71-8.22Q47.30-9.44 48.42-10.10Q49.53-10.76 51.05-10.76L51.05-10.76Q53.12-10.76 54.33-9.62Q55.54-8.48 55.54-6.52L55.54-6.52L52.45-6.52Q52.45-7.34 52.05-7.78Q51.65-8.22 50.98-8.22L50.98-8.22Q49.70-8.22 49.48-6.59L49.48-6.59Q49.41-6.07 49.41-5.17L49.41-5.17Q49.41-3.57 49.79-2.96Q50.18-2.34 51.01-2.34ZM58.96-3.19L58.96-3.19Q59.75-3.19 60.26-2.73Q60.78-2.27 60.78-1.54Q60.78-0.82 60.26-0.36Q59.75 0.11 58.96 0.11L58.96 0.11Q58.17 0.11 57.66-0.36Q57.15-0.83 57.15-1.54Q57.15-2.26 57.66-2.72Q58.17-3.19 58.96-3.19ZM67.44-2.34L67.44-2.34Q68.13-2.34 68.52-2.72Q68.90-3.10 68.89-3.77L68.89-3.77L71.97-3.77Q71.97-2.03 70.73-0.92Q69.48 0.20 67.52 0.20L67.52 0.20Q65.21 0.20 63.89-1.25Q62.56-2.70 62.56-5.25L62.56-5.25L62.56-5.39Q62.56-6.99 63.15-8.22Q63.74-9.44 64.85-10.10Q65.97-10.76 67.49-10.76L67.49-10.76Q69.55-10.76 70.76-9.62Q71.97-8.48 71.97-6.52L71.97-6.52L68.89-6.52Q68.89-7.34 68.49-7.78Q68.09-8.22 67.41-8.22L67.41-8.22Q66.13-8.22 65.92-6.59L65.92-6.59Q65.85-6.07 65.85-5.17L65.85-5.17Q65.85-3.57 66.23-2.96Q66.61-2.34 67.44-2.34ZM73.30-10.57L76.39-10.57L76.49-9.33Q77.59-10.76 79.51-10.76L79.51-10.76Q81.16-10.76 81.98-9.78Q82.79-8.79 82.82-6.81L82.82-6.81L82.82 0L79.52 0L79.52-6.67Q79.52-7.47 79.20-7.85Q78.88-8.22 78.03-8.22L78.03-8.22Q77.06-8.22 76.59-7.46L76.59-7.46L76.59 0L73.30 0L73.30-10.57Z"></path></g></g></svg><style>@media (prefers-color-scheme: light) { :root { filter: none; } }
@media (prefers-color-scheme: dark) { :root { filter: none; } }
</style></svg>